<?xml version="1.0" ?><svg id="Icons" style="enable-background:new 0 0 32 32;" version="1.1" viewBox="0 0 32 32" xml:space="preserve" xmlns="http://www.w3.org/2000/svg" xmlns:xlink="http://www.w3.org/1999/xlink"><style type="text/css">
	.st0{fill:none;stroke:#000000;stroke-width:2;stroke-linecap:round;stroke-linejoin:round;stroke-miterlimit:10;}
</style><polyline class="st0" points="3,7 3,3 7,3 "/><polyline class="st0" points="25,3 29,3 29,7 "/><polyline class="st0" points="29,25 29,29 25,29 "/><polyline class="st0" points="7,29 3,29 3,25 "/><g><path d="M7,27c-0.3,0-0.6-0.1-0.8-0.4C6,26.4,6,26.1,6,25.8c0.5-2.4,2.2-4.4,4.6-5c1.1-0.3,1.9-1.2,2.1-2.3   c-1.4-1.1-2.2-2.9-2.2-4.7v-3c0-1.3,0.6-2.6,1.6-3.4c0.7-0.5,1.4-0.8,2.2-0.7c1.1-1.2,2.6-1.7,4.2-1.6c2.6,0.3,4.6,2.6,4.6,5.5v1.8   c0,0.6-0.4,1-1,1c-0.3,0-0.5,0.3-0.5,0.6c0,1.8-0.8,3.5-2.2,4.6c0.2,1.1,1,2,2,2.3l0,0c2.3,0.6,4.2,2.6,4.6,5   c0.1,0.3,0,0.6-0.2,0.8C25.6,26.9,25.3,27,25,27L7,27z"/></g></svg>